<?xml version="1.0" encoding="UTF-8"?><svg id="Camada_1" xmlns="http://www.w3.org/2000/svg" viewBox="0 0 804.91 901.19"><defs><style>.cls-1{fill:#fff;}.cls-2{fill:#e7ad77;}</style></defs><path class="cls-2" d="M124.54,682.15c0-22.05-17.14-38.38-38.79-38.38-25.31,0-40.42,15.11-51.04,30.22L.41,644.17c22.05-26.55,49-42.47,85.34-42.47,46.15,0,82.9,35.93,82.9,80.44,0,37.57-12.26,59.21-53.5,120.87l-33.07,49h102.9v42.06H0l70.24-102.91c44.51-64.93,54.31-82.9,54.31-109.03Z"/><path class="cls-2" d="M202.97,810.78v-119.24c0-49.82,40.02-89.84,89.84-89.84s89.84,40.02,89.84,89.84v119.24c0,49.82-40.02,89.84-89.84,89.84s-89.84-40.02-89.84-89.84ZM338.54,810.78v-119.24c0-26.55-20.42-47.78-45.73-47.78s-45.74,21.23-45.74,47.78v119.24c0,26.55,20.42,47.78,45.74,47.78s45.73-21.23,45.73-47.78Z"/><path class="cls-2" d="M528.44,682.15c0-22.05-17.14-38.38-38.79-38.38-25.31,0-40.42,15.11-51.04,30.22l-34.3-29.8c22.05-26.55,49-42.47,85.34-42.47,46.15,0,82.9,35.93,82.9,80.44,0,37.57-12.26,59.21-53.5,120.87l-33.07,49h102.9v42.06h-184.98l70.24-102.91c44.51-64.93,54.31-82.9,54.31-109.03Z"/><path class="cls-2" d="M600.74,858.15l34.3-29.81c10.62,15.11,25.72,30.22,51.04,30.22s45.74-21.23,45.74-47.78-20.42-47.78-45.74-47.78h-66.56l21.64-154.77h130.26v42.06h-91.47l-10.22,70.65h16.34c49.82,0,89.84,40.02,89.84,89.84s-40.02,89.84-89.84,89.84c-36.34,0-63.29-15.93-85.34-42.47Z"/><path class="cls-2" d="M89.84,253.7C40.02,253.7,0,293.71,0,343.53v123.33C0,516.67,40.02,556.69,89.84,556.69s89.84-40.02,89.84-89.84v-20.42h-44.11v20.42c0,26.54-20.42,47.78-45.73,47.78s-45.74-21.24-45.74-47.78v-123.33c0-26.54,20.42-47.78,45.74-47.78s45.73,21.24,45.73,47.78v20.42h44.11v-20.42c0-49.82-40.02-89.83-89.84-89.83Z"/><path class="cls-2" d="M291.99,253.7c-49.82,0-89.84,40.01-89.84,89.83v119.24c0,49.82,40.02,89.83,89.84,89.83s89.83-40.01,89.83-89.83v-119.24c0-49.82-40.01-89.83-89.83-89.83ZM337.72,462.77c0,26.54-20.42,47.78-45.73,47.78s-45.74-21.24-45.74-47.78v-119.24c0-26.54,20.42-47.78,45.74-47.78s45.73,21.24,45.73,47.78v119.24Z"/><polygon class="cls-2" points="804.91 301.88 804.91 260.23 649.33 260.23 649.33 410.81 604.39 410.81 604.39 260.23 560.29 260.23 560.29 375.79 462.7 260.23 418.59 260.23 418.59 546.07 462.7 546.07 462.7 328.83 560.29 444.81 560.29 546.07 604.39 546.07 604.39 452.46 649.33 452.46 649.33 546.07 693.43 546.07 693.43 452.56 779.18 452.56 779.18 410.91 755.35 410.91 755.35 410.81 693.43 410.81 693.43 301.88 804.91 301.88"/><path class="cls-1" d="M752.8,47.85c10,32,17.73,67.72,26.68,99.99h24.95s0-109.1,0-145.59c0-.07-20.87-.01-20.87-.01,0,25.82,0,57.11,0,82.93-.15,0-.29.02-.44.02-7.29-26.44-14.38-56.46-21.48-82.95l-30.21.02c-.04,45.9.07,99.68-.04,145.57h21.42s0-68.21,0-99.98Z"/><path class="cls-1" d="M289.26,129.78c.04,7.15,1.21,14.24-7.41,16.94-7.25,2.25-14.69,2.64-22.19,2.03-2.81-.23-5.63-.46-8.36-1.32-6.6-2.07-9.61-6.07-9.61-12.91,0-15.03,0-30.06,0-45.08h-.01c0-15.03,0-30.06,0-45.08,0-10.68,6.1-16.93,16.88-17.1,8.59-.13,17.18-.03,25.77-.03.81,0,3.58.02,4.44-.03l-.02-1.76c-5.76-.03-13.49-.01-19.25-.03h-3.98s-.08-4.12-.08-4.12c0-2.22-.09-4.44.06-6.65.41-6.03,2.81-8.99,8.65-10.52,7.21-1.89,14.54-2.24,21.94-1.43,3.42.37,6.86.59,9.97,2.27,4.54,2.45,7.03,5.94,7.01,11.38-.12,29.95-.07,59.91-.07,89.87,0,11.59-6.04,17.73-17.72,17.87-8.99.13-20.62-.05-29.6.05v1.79s14.08.13,19.74,0h3.85s0,2.63,0,3.88ZM265.55,100.79c8.5.3,23.16,1.87,23.22-10.45.02-13.27-.04-26.54,0-39.79-6.03-.52-23.22-2.19-23.22,11.53,0,12.89,0,25.82,0,38.71ZM282.39,136.79c-.06-2.14-2.05-4.06-4.11-3.95-2.22.12-3.75,1.92-3.62,4.34.13,2.44,1.57,3.62,3.89,3.71,2.25.09,3.91-1.77,3.84-4.1ZM280.01,14.86c0-2.79-1.66-4.55-3.94-4.43-2.41.13-3.65,1.54-3.74,3.9-.08,2.18,1.91,4.31,3.95,4.09,2.26-.25,3.68-1.53,3.73-3.56Z"/><path class="cls-1" d="M166.66,2.32c10.92,0,21.84-.21,32.75.06,17.2-.17,30.51,9.38,31.37,27.4.52,15.43,3.23,36.04-11.84,45.67-1.05.66-1.97,1.26-.23,2.3,16.07,9.64,11.78,29.39,12.42,45.11.13,7.74.09,17.47,2.45,25.01h-23.89c-.87-3.11-1.69-6.29-1.89-12-.34-9.58-.05-19.16-.07-28.74.29-11.6-3.23-18.41-15.7-18.06h-6.43v6.45c-.03,16.14-.07,36.21.06,52.35h-23.48c.09-23.1.05-50.04.05-73.14,0-22.69,0-45.39,0-68.08l.02-4.33h4.41M185.66,67.56s6.93.1,9.23,0c8.18-.36,11.27-3.72,12.41-11.72.72-5.03.36-10.07.38-15.1.02-4.01-.28-6.64-1.11-9.88-2.23-8.69-9.82-7.18-17.88-7.15l-3.12.12-.02,3.01c.12,6.25.04,12.5.04,18.76v13.61l.06,8.35Z"/><path class="cls-1" d="M717.66,75.36c0,12.71,0,25.41,0,38.12,0,5.49-.85,10.84-2.73,16.01-6.34,19.25-30.67,24.06-47.82,17.23-14.21-5.21-19.27-19.29-19.38-33.32-.04-26.02-.05-52.03.03-78.05.02-5.37,1.07-10.62,3.08-15.64,5.86-16.03,24.5-21.31,40.03-18.36,18.85,3.16,27.12,18.15,26.81,36.49-.03,12.5-.01,25.01-.01,37.51ZM671.42,75.05c.1,14.32-.21,28.66.13,42.97.57,6.28,4.76,10.11,11.03,10.16,6.33.05,10.55-3.66,11.21-9.94.37-3.51.6-7.02.59-10.56-.05-20.88-.03-41.76-.02-62.64,0-4.13-.07-8.26-.48-12.38-.67-6.76-4.67-10.65-11.22-10.64-6.66.01-10.78,4.05-11.17,10.98-.07,1.31-.07,2.62-.07,3.93,0,12.71,0,25.42,0,38.13Z"/><path class="cls-1" d="M25.46,125.57c-.84,6.09-2.18,16.44-3.05,22.53l-21.92-.02C7.46,105.51,23.22,2.51,23.22,2.51h35.05c3.53,22.4,7.18,47.84,10.78,70.24,3.86,24.28,7.88,51.04,11.63,75.33h-23.92c-.97-6.49-2.02-16.44-2.83-22.94l-.4-3.35h-3.57s-23.9,0-23.9,0l-.6,3.78ZM50.27,101.26l-.53-3.12c-3.38-21.74-6.75-43.87-10.09-65.61-.08.7-6.73,43.94-10.09,65.7l-.45,3.03h21.16Z"/><path class="cls-1" d="M363.4,2.39c16.89-.01,30.28,10.19,31.73,27.35,2.34,25.95,4.91,62.75-30.44,63.57-3.44.07-6.88.16-10.31.01-2.54-.11-3.32.88-3.31,3.34.08,15.54.04,35.34.03,50.87v.34h-23.68c0-22.8,0-49.87,0-72.67,0-22.7,0-45.4,0-68.1V2.39s35.97,0,35.97,0M351.07,68.3l.03,3.67h10.52c6.52-.08,10.2-3.1,10.43-9.64.34-9.67.34-19.37,0-29.04-.22-6.33-3.94-9.43-10.23-9.59h-10.73v3.13c.09,6.96.03,13.92.02,20.88,0,6.86.09,13.72-.04,20.58"/><path class="cls-1" d="M450.13,147.48c-.13-13.72-.06-31.07-.05-44.8,0-1.61.03-3.2.51-4.79,9.09-30.45,18.14-60.9,27.21-91.35l1.13-4.23h-22.49l-17.23,63.95c-5.49-20.02-11.37-43.9-16.62-63.98l-24.39.03c8,26.98,16.52,57.72,24.74,84.63,1.13,3.7,2.25,7.92,3.06,10.82.41,1.48.48,3.58.56,5.14.14,2.8.3,34.36.16,44.95h23.4v-.37Z"/><path class="cls-1" d="M528.22,27.96v-4.32s17,0,22.56.06l-.09-21.36c-21.73.03-46.14.03-67.87,0l.13,21.38c5.56-.1,21.58-.09,21.58-.09v3.93c-.12,19.36-.05,38.73-.05,58.09,0,19.46.05,42.56-.05,62.2h23.79s0-81.96,0-119.88Z"/><path class="cls-1" d="M610.02,90.85c0,17.66,0,39.37,0,57.03h23.85s0-49.85,0-72.65c0-23.01-.04-49.99.05-72.99h-23.9c0,17.85-.05,44.12.05,61.98h-25.33v-5.37c-.02-17.56-.06-39.05.03-56.61l-24.58.02c0,45.61.77,100.02.78,145.63h23.75s.06-44.25-.05-61.9h25.36v4.86Z"/><path class="cls-1" d="M114.46,63.18l-.02,3.44h3.59c7.28-.12,18.34,0,25.61-.05v21.42c-7.48-.15-18.27.05-25.75-.1h-3.42v3.52c.08,17.35.04,39.11.04,56.46l-23.78-.02c.09-23,.05-49.97.05-72.97,0-22.7,0-45.4,0-68.09V2.32h4.33c17.59,0,35.18,0,52.77,0h4.1v21.45c-10.21-.11-23.84.03-34.05-.09h-3.45v3.49c.1,12,.1,24.01,0,36.01"/></svg>